<svg xmlns="http://www.w3.org/2000/svg" xmlns:xlink="http://www.w3.org/1999/xlink" width="38.902" height="40.516" viewBox="0 0 38.902 40.516">
  <defs>
    <clipPath id="clip-path">
      <rect id="Rectangle_15" data-name="Rectangle 15" width="32.542" height="29.939" transform="translate(353 21)" fill="#535353" stroke="#707070" stroke-width="1"/>
    </clipPath>
  </defs>
  <g id="Mask_Group_4" data-name="Mask Group 4" transform="translate(105.664 381.121) rotate(-109)" clip-path="url(#clip-path)">
    <g id="surface1" transform="translate(354.886 21)">
      <path id="Path_26" data-name="Path 26" d="M21.039,5.975a8.217,8.217,0,0,0-11.419,0,7.773,7.773,0,0,0,0,11.159,8.217,8.217,0,0,0,11.419,0A7.773,7.773,0,0,0,21.039,5.975Zm0,0" transform="translate(2.41 1.106)" fill="#535353"/>
      <path id="Path_27" data-name="Path 27" d="M25.708,3.708a13.169,13.169,0,0,0-18.322,0,12.458,12.458,0,0,0,0,17.905,13.169,13.169,0,0,0,18.322,0,12.458,12.458,0,0,0,0-17.905Zm-2.18,15.775a10.047,10.047,0,0,1-13.962,0,9.5,9.5,0,0,1,0-13.645,10.047,10.047,0,0,1,13.962,0A9.5,9.5,0,0,1,23.528,19.484Zm0,0" transform="translate(1.192 0)" fill="#535353"/>
      <path id="Path_28" data-name="Path 28" d="M5.847,16.092.7,21.1a2.3,2.3,0,0,0,0,3.3,2.429,2.429,0,0,0,3.378,0l5.15-5.007a13.032,13.032,0,0,1-1.849-1.5A12.858,12.858,0,0,1,5.847,16.092Zm0,0" transform="translate(0 4.855)" fill="#535353"/>
    </g>
  </g>
</svg>
