<svg id="Capa_1" enable-background="new 0 0 512 512" height="512" viewBox="0 0 512 512" width="512" xmlns="http://www.w3.org/2000/svg"><g><path d="m497 0h-120c-8.284 0-15 6.716-15 15s6.716 15 15 15h105v105c0 8.284 6.716 15 15 15s15-6.716 15-15v-120c0-8.284-6.716-15-15-15z"/><path d="m135 482h-105v-105c0-8.284-6.716-15-15-15s-15 6.716-15 15v120c0 8.284 6.716 15 15 15h120c8.284 0 15-6.716 15-15s-6.716-15-15-15z"/><path d="m15 150c8.284 0 15-6.716 15-15v-105h105c8.284 0 15-6.716 15-15s-6.716-15-15-15h-120c-8.284 0-15 6.716-15 15v120c0 8.284 6.716 15 15 15z"/><path d="m497 362c-8.284 0-15 6.716-15 15v105h-105c-8.284 0-15 6.716-15 15s6.716 15 15 15h120c8.284 0 15-6.716 15-15v-120c0-8.284-6.716-15-15-15z"/><path d="m2.563 247.613c-.004.006-.007.012-.011.018.641-.954 1.394-1.838 2.251-2.633 1.153-1.068 28.741-26.455 73.324-52.012 41.373-23.715 105.816-51.986 177.873-51.986s136.5 28.271 177.873 51.986c44.583 25.557 72.171 50.943 73.324 52.012.857.794 1.61 1.679 2.251 2.633-.004-.006-.007-.012-.011-.018-1.142-1.693-28.477-41.938-72.885-82.668-26.29-24.112-53.146-43.375-79.821-57.252-34.046-17.713-67.937-26.693-100.731-26.693s-66.685 8.98-100.731 26.693c-26.675 13.877-53.531 33.14-79.821 57.252-44.408 40.731-71.742 80.975-72.885 82.668z"/><path d="m509.437 264.387c.004-.006.007-.012.011-.018-.641.954-1.394 1.839-2.251 2.633-1.153 1.068-28.741 26.455-73.324 52.012-41.373 23.715-105.816 51.986-177.873 51.986s-136.5-28.271-177.873-51.986c-44.582-25.557-72.17-50.944-73.323-52.012-.857-.794-1.611-1.679-2.251-2.633.004.006.007.012.011.018 1.142 1.693 28.477 41.938 72.885 82.668 26.29 24.112 53.146 43.375 79.821 57.252 34.045 17.713 67.936 26.693 100.73 26.693s66.685-8.98 100.731-26.693c26.675-13.877 53.531-33.14 79.821-57.252 44.408-40.731 71.742-80.975 72.885-82.668z"/><path d="m93.717 218.631c-24.425 13.944-43.61 28.023-55.393 37.369 11.781 9.345 30.965 23.423 55.393 37.369 18.912 10.798 43.01 22.623 70.464 31.791-14.544-19.262-23.181-43.22-23.181-69.16s8.637-49.898 23.181-69.16c-27.454 9.168-51.552 20.993-70.464 31.791z"/><path d="m418.283 293.369c24.425-13.944 43.609-28.023 55.393-37.369-11.784-9.346-30.968-23.425-55.393-37.369-18.912-10.798-43.01-22.623-70.464-31.791 14.544 19.262 23.181 43.22 23.181 69.16s-8.637 49.898-23.181 69.16c27.454-9.168 51.552-20.993 70.464-31.791z"/><path d="m326 241h13.648c-2.198-12.285-7.035-23.66-13.916-33.519l-9.628 9.628c-5.858 5.858-15.355 5.858-21.213 0-5.858-5.858-5.858-15.355 0-21.213l9.628-9.629c-9.859-6.88-21.234-11.718-33.519-13.915v13.648c0 8.284-6.716 15-15 15-8.284 0-15-6.716-15-15v-13.648c-12.285 2.198-23.66 7.035-33.519 13.915l9.628 9.629c5.858 5.858 5.858 15.355 0 21.213-5.858 5.858-15.355 5.857-21.213 0l-9.628-9.628c-6.881 9.859-11.718 21.234-13.916 33.519h13.648c8.284 0 15 6.716 15 15 0 8.284-6.716 15-15 15h-13.648c2.198 12.285 7.035 23.66 13.916 33.519l9.628-9.628c5.858-5.858 15.355-5.858 21.213 0 5.858 5.858 5.858 15.355 0 21.213l-9.628 9.629c9.859 6.88 21.234 11.718 33.519 13.915v-13.648c0-8.284 6.716-15 15-15 8.284 0 15 6.716 15 15v13.648c12.285-2.198 23.66-7.035 33.519-13.915l-9.628-9.629c-5.858-5.858-5.858-15.355 0-21.213 5.858-5.858 15.355-5.857 21.213 0l9.628 9.628c6.881-9.859 11.718-21.234 13.916-33.519h-13.648c-8.284 0-15-6.716-15-15 0-8.284 6.716-15 15-15zm-70 30c-8.284 0-15-6.716-15-15s6.716-15 15-15 15 6.716 15 15-6.716 15-15 15z"/><circle cx="437" cy="75" r="15"/><circle cx="75" cy="75" r="15"/><circle cx="437" cy="437" r="15"/><circle cx="75" cy="437" r="15"/></g></svg>